<?xml version="1.0" encoding="UTF-8" standalone="no"?>
<!DOCTYPE svg PUBLIC "-//W3C//DTD SVG 1.1//EN"
 "http://www.w3.org/Graphics/SVG/1.1/DTD/svg11.dtd">
<!-- Generated by graphviz version 2.36.0 (20140111.2315)
 -->
<!-- Title: finite_state_machine Pages: 1 -->
<svg width="569pt" height="360pt"
 viewBox="0.00 0.00 568.58 360.00" xmlns="http://www.w3.org/2000/svg" xmlns:xlink="http://www.w3.org/1999/xlink">
<g id="graph0" class="graph" transform="scale(0.488467 0.488467) rotate(0) translate(4 733)">
<title>finite_state_machine</title>
<polygon fill="white" stroke="none" points="-4,4 -4,-733 1160,-733 1160,4 -4,4"/>
<!-- s -->
<g id="node1" class="node"><title>s</title>
<ellipse fill="none" stroke="black" cx="18" cy="-654" rx="18" ry="18"/>
<text text-anchor="middle" x="18" y="-650.3" font-family="Times,serif" font-size="14.00">s</text>
</g>
<!-- s&#45;&gt;s -->
<g id="edge1" class="edge"><title>s&#45;&gt;s</title>
<path fill="none" stroke="black" d="M10.9688,-670.664C9.40625,-680.625 11.75,-690 18,-690 22.0039,-690 24.4047,-686.152 25.2023,-680.768"/>
<polygon fill="black" stroke="black" points="28.7001,-680.603 25.0312,-670.664 21.7011,-680.722 28.7001,-680.603"/>
<text text-anchor="middle" x="18" y="-693.8" font-family="Times,serif" font-size="14.00">1</text>
</g>
<!-- i -->
<g id="node2" class="node"><title>i</title>
<ellipse fill="none" stroke="black" cx="98" cy="-465" rx="18" ry="18"/>
<text text-anchor="middle" x="98" y="-461.3" font-family="Times,serif" font-size="14.00">i</text>
</g>
<!-- s&#45;&gt;i -->
<g id="edge2" class="edge"><title>s&#45;&gt;i</title>
<path fill="none" stroke="black" d="M32.6184,-643.49C42.2301,-635.357 54.6571,-623.271 62,-610 82.5458,-572.867 91.1295,-523.857 94.6467,-493.392"/>
<polygon fill="black" stroke="black" points="98.1676,-493.373 95.726,-483.063 91.2055,-492.646 98.1676,-493.373"/>
<text text-anchor="middle" x="58" y="-624.8" font-family="Times,serif" font-size="14.00">1</text>
</g>
<!--   -->
<g id="node3" class="node"><title> </title>
<ellipse fill="none" stroke="black" cx="338" cy="-312" rx="18" ry="18"/>
<text text-anchor="middle" x="338" y="-308.3" font-family="Times,serif" font-size="14.00"> </text>
</g>
<!-- s&#45;&gt;  -->
<g id="edge3" class="edge"><title>s&#45;&gt; </title>
<path fill="none" stroke="black" d="M36.3445,-654.5C60.7565,-654.631 106.262,-652.75 142,-639 169.39,-628.462 176.383,-622.827 196,-601 260.897,-528.792 262.676,-498.765 302,-410 312.076,-387.255 311.603,-380.417 320,-357 322.167,-350.957 324.566,-344.485 326.861,-338.387"/>
<polygon fill="black" stroke="black" points="330.292,-339.211 330.568,-328.619 323.748,-336.727 330.292,-339.211"/>
<text text-anchor="middle" x="178" y="-634.8" font-family="Times,serif" font-size="14.00">2</text>
</g>
<!-- i&#45;&gt;s -->
<g id="edge22" class="edge"><title>i&#45;&gt;s</title>
<path fill="none" stroke="black" d="M90.2857,-481.269C76.7124,-514.158 45.9174,-588.777 29.6022,-628.31"/>
<polygon fill="black" stroke="black" points="26.3652,-626.979 25.7855,-637.558 32.8358,-629.65 26.3652,-626.979"/>
<text text-anchor="middle" x="58" y="-568.8" font-family="Times,serif" font-size="14.00">2</text>
</g>
<!-- c -->
<g id="node9" class="node"><title>c</title>
<ellipse fill="none" stroke="black" cx="898" cy="-237" rx="18" ry="18"/>
<text text-anchor="middle" x="898" y="-233.3" font-family="Times,serif" font-size="14.00">c</text>
</g>
<!-- i&#45;&gt;c -->
<g id="edge24" class="edge"><title>i&#45;&gt;c</title>
<path fill="none" stroke="black" d="M99.4929,-447.006C101.194,-395.118 108.218,-240.941 134,-116 145.112,-62.1508 122.016,-0 177,-0 177,-0 177,-0 459,-0 598,-0 637.389,-25.5258 756,-98 808.282,-129.946 856.114,-184.79 880.347,-215.16"/>
<polygon fill="black" stroke="black" points="877.609,-217.34 886.541,-223.038 883.112,-213.013 877.609,-217.34"/>
<text text-anchor="middle" x="498" y="-5.8" font-family="Times,serif" font-size="14.00">1</text>
</g>
<!-- g -->
<g id="node10" class="node"><title>g</title>
<ellipse fill="none" stroke="black" cx="658" cy="-249" rx="18" ry="18"/>
<text text-anchor="middle" x="658" y="-245.3" font-family="Times,serif" font-size="14.00">g</text>
</g>
<!-- i&#45;&gt;g -->
<g id="edge21" class="edge"><title>i&#45;&gt;g</title>
<path fill="none" stroke="black" d="M100.352,-446.925C106.668,-365.652 134.752,-38 177,-38 177,-38 177,-38 379,-38 483.928,-38 519.443,-59.2432 596,-131 622.886,-156.2 639.974,-195.914 649.021,-222.205"/>
<polygon fill="black" stroke="black" points="645.759,-223.49 652.203,-231.901 652.41,-221.308 645.759,-223.49"/>
<text text-anchor="middle" x="378" y="-41.8" font-family="Times,serif" font-size="14.00">2</text>
</g>
<!-- n -->
<g id="node11" class="node"><title>n</title>
<ellipse fill="none" stroke="black" cx="178" cy="-371" rx="18" ry="18"/>
<text text-anchor="middle" x="178" y="-367.3" font-family="Times,serif" font-size="14.00">n</text>
</g>
<!-- i&#45;&gt;n -->
<g id="edge23" class="edge"><title>i&#45;&gt;n</title>
<path fill="none" stroke="black" d="M110.175,-451.532C123.034,-436.036 144.313,-410.393 159.401,-392.209"/>
<polygon fill="black" stroke="black" points="162.153,-394.374 165.845,-384.443 156.766,-389.904 162.153,-394.374"/>
<text text-anchor="middle" x="138" y="-424.8" font-family="Times,serif" font-size="14.00">1</text>
</g>
<!--  &#45;&gt;i -->
<g id="edge11" class="edge"><title> &#45;&gt;i</title>
<path fill="none" stroke="black" d="M320.884,-305.375C315.037,-303.266 308.315,-301.178 302,-300 263.549,-292.829 250.401,-286.687 214,-301 154.755,-324.295 121.435,-398.137 107.258,-438.322"/>
<polygon fill="black" stroke="black" points="103.875,-437.401 103.986,-447.995 110.506,-439.644 103.875,-437.401"/>
<text text-anchor="middle" x="218" y="-304.8" font-family="Times,serif" font-size="14.00">3</text>
</g>
<!-- a -->
<g id="node7" class="node"><title>a</title>
<ellipse fill="none" stroke="black" cx="818" cy="-447" rx="18" ry="18"/>
<text text-anchor="middle" x="818" y="-443.3" font-family="Times,serif" font-size="14.00">a</text>
</g>
<!--  &#45;&gt;a -->
<g id="edge12" class="edge"><title> &#45;&gt;a</title>
<path fill="none" stroke="black" d="M345.763,-328.508C349.087,-336.95 353.009,-347.435 356,-357 370.736,-404.121 355.089,-438.492 400,-459 408.657,-462.953 499.683,-492.961 782,-456 784.763,-455.638 787.62,-455.131 790.456,-454.54"/>
<polygon fill="black" stroke="black" points="791.524,-457.883 800.427,-452.141 789.886,-451.078 791.524,-457.883"/>
<text text-anchor="middle" x="578" y="-478.8" font-family="Times,serif" font-size="14.00">3</text>
</g>
<!--  &#45;&gt;g -->
<g id="edge10" class="edge"><title> &#45;&gt;g</title>
<path fill="none" stroke="black" d="M347.366,-296.237C353.705,-285.249 363.155,-270.701 374,-260 409.518,-224.953 430.514,-229.406 480,-223 531.131,-216.381 545.558,-211.335 596,-222 608.795,-224.705 622.171,-230.277 633.126,-235.661"/>
<polygon fill="black" stroke="black" points="631.562,-238.792 642.054,-240.266 634.772,-232.571 631.562,-238.792"/>
<text text-anchor="middle" x="498" y="-226.8" font-family="Times,serif" font-size="14.00">2</text>
</g>
<!--  &#45;&gt;n -->
<g id="edge13" class="edge"><title> &#45;&gt;n</title>
<path fill="none" stroke="black" d="M320.232,-307.701C300.371,-303.451 266.627,-298.913 240,-309 220.939,-316.221 205.019,-333.065 194.228,-347.376"/>
<polygon fill="black" stroke="black" points="191.142,-345.675 188.189,-355.85 196.843,-349.737 191.142,-345.675"/>
<text text-anchor="middle" x="258" y="-312.8" font-family="Times,serif" font-size="14.00">1</text>
</g>
<!-- t -->
<g id="node12" class="node"><title>t</title>
<ellipse fill="none" stroke="black" cx="1058" cy="-516" rx="18" ry="18"/>
<text text-anchor="middle" x="1058" y="-512.3" font-family="Times,serif" font-size="14.00">t</text>
</g>
<!--  &#45;&gt;t -->
<g id="edge14" class="edge"><title> &#45;&gt;t</title>
<path fill="none" stroke="black" d="M342.454,-294.459C348.868,-266.477 365.249,-211.765 400,-181 445.739,-140.508 616.873,-112 697,-112 697,-112 697,-112 979,-112 1055.62,-112 1058.6,-395.71 1057.55,-487.629"/>
<polygon fill="black" stroke="black" points="1054.05,-487.808 1057.41,-497.856 1061.05,-487.906 1054.05,-487.808"/>
<text text-anchor="middle" x="698" y="-116.8" font-family="Times,serif" font-size="14.00">1</text>
</g>
<!-- e -->
<g id="node13" class="node"><title>e</title>
<ellipse fill="none" stroke="black" cx="498" cy="-403" rx="18" ry="18"/>
<text text-anchor="middle" x="498" y="-399.3" font-family="Times,serif" font-size="14.00">e</text>
</g>
<!--  &#45;&gt;e -->
<g id="edge15" class="edge"><title> &#45;&gt;e</title>
<path fill="none" stroke="black" d="M356.268,-313.232C376.608,-315.34 410.814,-320.992 436,-336 454.413,-346.972 470.506,-365.245 481.533,-379.939"/>
<polygon fill="black" stroke="black" points="478.729,-382.034 487.419,-388.095 484.405,-377.937 478.729,-382.034"/>
<text text-anchor="middle" x="418" y="-339.8" font-family="Times,serif" font-size="14.00">2</text>
</g>
<!-- w -->
<g id="node14" class="node"><title>w</title>
<ellipse fill="none" stroke="black" cx="418" cy="-432" rx="18" ry="18"/>
<text text-anchor="middle" x="418" y="-428.3" font-family="Times,serif" font-size="14.00">w</text>
</g>
<!--  &#45;&gt;w -->
<g id="edge16" class="edge"><title> &#45;&gt;w</title>
<path fill="none" stroke="black" d="M345.347,-328.852C354.786,-353.81 371.67,-398.001 374,-401 379.24,-407.746 386.332,-413.675 393.245,-418.493"/>
<polygon fill="black" stroke="black" points="391.452,-421.501 401.753,-423.979 395.246,-415.618 391.452,-421.501"/>
<text text-anchor="middle" x="378" y="-413.8" font-family="Times,serif" font-size="14.00">2</text>
</g>
<!-- m -->
<g id="node4" class="node"><title>m</title>
<ellipse fill="none" stroke="black" cx="338" cy="-384" rx="18.399" ry="18.399"/>
<text text-anchor="middle" x="338" y="-380.3" font-family="Times,serif" font-size="14.00">m</text>
</g>
<!-- b -->
<g id="node5" class="node"><title>b</title>
<ellipse fill="none" stroke="black" cx="418" cy="-378" rx="18" ry="18"/>
<text text-anchor="middle" x="418" y="-374.3" font-family="Times,serif" font-size="14.00">b</text>
</g>
<!-- m&#45;&gt;b -->
<g id="edge4" class="edge"><title>m&#45;&gt;b</title>
<path fill="none" stroke="black" d="M356.311,-382.668C366.174,-381.91 378.752,-380.942 389.896,-380.085"/>
<polygon fill="black" stroke="black" points="390.304,-383.564 400.006,-379.307 389.767,-376.585 390.304,-383.564"/>
<text text-anchor="middle" x="378" y="-385.8" font-family="Times,serif" font-size="14.00">1</text>
</g>
<!-- b&#45;&gt;e -->
<g id="edge28" class="edge"><title>b&#45;&gt;e</title>
<path fill="none" stroke="black" d="M435.379,-382.798C443.421,-385.193 453.241,-388.176 462,-391 464.961,-391.955 468.055,-392.978 471.125,-394.009"/>
<polygon fill="black" stroke="black" points="470.066,-397.346 480.66,-397.259 472.324,-390.72 470.066,-397.346"/>
<text text-anchor="middle" x="458" y="-394.8" font-family="Times,serif" font-size="14.00">1</text>
</g>
<!-- o -->
<g id="node6" class="node"><title>o</title>
<ellipse fill="none" stroke="black" cx="1138" cy="-632" rx="18" ry="18"/>
<text text-anchor="middle" x="1138" y="-628.3" font-family="Times,serif" font-size="14.00">o</text>
</g>
<!-- o&#45;&gt;  -->
<g id="edge5" class="edge"><title>o&#45;&gt; </title>
<path fill="none" stroke="black" d="M1125.46,-645.131C1111.36,-659.645 1086.03,-681 1059,-681 817,-681 817,-681 817,-681 719.598,-681 478.749,-603.321 400,-546 330.27,-495.244 376.43,-440.792 356,-357 354.479,-350.763 352.339,-344.213 350.088,-338.102"/>
<polygon fill="black" stroke="black" points="353.183,-336.405 346.286,-328.363 346.662,-338.951 353.183,-336.405"/>
<text text-anchor="middle" x="738" y="-677.8" font-family="Times,serif" font-size="14.00">1</text>
</g>
<!-- a&#45;&gt;s -->
<g id="edge8" class="edge"><title>a&#45;&gt;s</title>
<path fill="none" stroke="black" d="M817.017,-465.145C816.062,-505.218 808.143,-602.066 756,-657 710.598,-704.832 684.949,-714 619,-714 97,-714 97,-714 97,-714 71.4532,-714 49.1384,-693.529 34.9961,-676.502"/>
<polygon fill="black" stroke="black" points="37.6604,-674.228 28.7316,-668.524 32.155,-678.551 37.6604,-674.228"/>
<text text-anchor="middle" x="418" y="-717.8" font-family="Times,serif" font-size="14.00">1</text>
</g>
<!-- a&#45;&gt;  -->
<g id="edge6" class="edge"><title>a&#45;&gt; </title>
<path fill="none" stroke="black" d="M817.888,-465.04C818.128,-492.455 813.988,-543.953 782,-568 693.878,-634.245 642.15,-584.39 534,-563 457.68,-547.906 419.194,-555.325 374,-492 338.837,-442.73 370.792,-415.696 356,-357 354.431,-350.775 352.271,-344.23 350.017,-338.12"/>
<polygon fill="black" stroke="black" points="353.114,-336.426 346.222,-328.379 346.591,-338.967 353.114,-336.426"/>
<text text-anchor="middle" x="578" y="-581.8" font-family="Times,serif" font-size="14.00">3</text>
</g>
<!-- p -->
<g id="node8" class="node"><title>p</title>
<ellipse fill="none" stroke="black" cx="898" cy="-447" rx="18" ry="18"/>
<text text-anchor="middle" x="898" y="-443.3" font-family="Times,serif" font-size="14.00">p</text>
</g>
<!-- a&#45;&gt;p -->
<g id="edge7" class="edge"><title>a&#45;&gt;p</title>
<path fill="none" stroke="black" d="M836.311,-447C846.106,-447 858.578,-447 869.665,-447"/>
<polygon fill="black" stroke="black" points="869.738,-450.5 879.738,-447 869.738,-443.5 869.738,-450.5"/>
<text text-anchor="middle" x="858" y="-450.8" font-family="Times,serif" font-size="14.00">2</text>
</g>
<!-- a&#45;&gt;c -->
<g id="edge9" class="edge"><title>a&#45;&gt;c</title>
<path fill="none" stroke="black" d="M825.251,-430.17C838.834,-393.6 871.121,-306.675 887.345,-262.995"/>
<polygon fill="black" stroke="black" points="890.626,-264.212 890.827,-253.619 884.064,-261.774 890.626,-264.212"/>
<text text-anchor="middle" x="858" y="-352.8" font-family="Times,serif" font-size="14.00">1</text>
</g>
<!-- h -->
<g id="node18" class="node"><title>h</title>
<ellipse fill="none" stroke="black" cx="978" cy="-447" rx="18" ry="18"/>
<text text-anchor="middle" x="978" y="-443.3" font-family="Times,serif" font-size="14.00">h</text>
</g>
<!-- p&#45;&gt;h -->
<g id="edge34" class="edge"><title>p&#45;&gt;h</title>
<path fill="none" stroke="black" d="M916.311,-447C926.106,-447 938.578,-447 949.665,-447"/>
<polygon fill="black" stroke="black" points="949.738,-450.5 959.738,-447 949.738,-443.5 949.738,-450.5"/>
<text text-anchor="middle" x="938" y="-450.8" font-family="Times,serif" font-size="14.00">2</text>
</g>
<!-- c&#45;&gt;h -->
<g id="edge46" class="edge"><title>c&#45;&gt;h</title>
<path fill="none" stroke="black" d="M916.042,-239.649C925.069,-241.938 935.586,-246.179 942,-254 962.334,-278.795 971.692,-371.561 975.219,-418.87"/>
<polygon fill="black" stroke="black" points="971.741,-419.317 975.939,-429.045 978.724,-418.823 971.741,-419.317"/>
<text text-anchor="middle" x="938" y="-257.8" font-family="Times,serif" font-size="14.00">2</text>
</g>
<!-- g&#45;&gt;n -->
<g id="edge42" class="edge"><title>g&#45;&gt;n</title>
<path fill="none" stroke="black" d="M647.554,-233.975C627.55,-203.643 577.649,-135.481 516,-106 509.311,-102.801 425.847,-91.0787 400,-98 280.593,-129.975 211.717,-282.491 188.218,-344.597"/>
<polygon fill="black" stroke="black" points="184.893,-343.499 184.715,-354.092 191.46,-345.922 184.893,-343.499"/>
<text text-anchor="middle" x="418" y="-101.8" font-family="Times,serif" font-size="14.00">1</text>
</g>
<!-- g&#45;&gt;e -->
<g id="edge43" class="edge"><title>g&#45;&gt;e</title>
<path fill="none" stroke="black" d="M644.221,-261.456C616.661,-288.318 551.481,-351.848 518.637,-383.86"/>
<polygon fill="black" stroke="black" points="516.116,-381.43 511.398,-390.916 521.002,-386.442 516.116,-381.43"/>
<text text-anchor="middle" x="578" y="-345.8" font-family="Times,serif" font-size="14.00">1</text>
</g>
<!-- r -->
<g id="node16" class="node"><title>r</title>
<ellipse fill="none" stroke="black" cx="738" cy="-365" rx="18" ry="18"/>
<text text-anchor="middle" x="738" y="-361.3" font-family="Times,serif" font-size="14.00">r</text>
</g>
<!-- g&#45;&gt;r -->
<g id="edge41" class="edge"><title>g&#45;&gt;r</title>
<path fill="none" stroke="black" d="M668.879,-263.691C682.124,-283.39 705.781,-318.572 721.434,-341.851"/>
<polygon fill="black" stroke="black" points="718.717,-344.082 727.201,-350.428 724.526,-340.176 718.717,-344.082"/>
<text text-anchor="middle" x="698" y="-314.8" font-family="Times,serif" font-size="14.00">2</text>
</g>
<!-- g&#45;&gt;h -->
<g id="edge40" class="edge"><title>g&#45;&gt;h</title>
<path fill="none" stroke="black" d="M672.869,-259.201C687.883,-269.216 712.921,-283 737,-283 737,-283 737,-283 899,-283 958.378,-283 972.605,-371.757 975.978,-418.68"/>
<polygon fill="black" stroke="black" points="972.493,-419.049 976.584,-428.823 979.481,-418.631 972.493,-419.049"/>
<text text-anchor="middle" x="818" y="-286.8" font-family="Times,serif" font-size="14.00">1</text>
</g>
<!-- n&#45;&gt;  -->
<g id="edge35" class="edge"><title>n&#45;&gt; </title>
<path fill="none" stroke="black" d="M195.019,-365.018C222.463,-354.77 278.683,-333.777 311.547,-321.505"/>
<polygon fill="black" stroke="black" points="312.794,-324.775 320.938,-317.998 310.346,-318.217 312.794,-324.775"/>
<text text-anchor="middle" x="258" y="-351.8" font-family="Times,serif" font-size="14.00">1</text>
</g>
<!-- n&#45;&gt;e -->
<g id="edge37" class="edge"><title>n&#45;&gt;e</title>
<path fill="none" stroke="black" d="M178.622,-389.216C178.702,-435.503 185.855,-554 257,-554 257,-554 257,-554 379,-554 441.218,-554 475.504,-473.422 489.465,-429.99"/>
<polygon fill="black" stroke="black" points="492.844,-430.909 492.435,-420.322 486.153,-428.853 492.844,-430.909"/>
<text text-anchor="middle" x="338" y="-557.8" font-family="Times,serif" font-size="14.00">1</text>
</g>
<!-- u -->
<g id="node17" class="node"><title>u</title>
<ellipse fill="none" stroke="black" cx="258" cy="-397" rx="18" ry="18"/>
<text text-anchor="middle" x="258" y="-393.3" font-family="Times,serif" font-size="14.00">u</text>
</g>
<!-- n&#45;&gt;u -->
<g id="edge36" class="edge"><title>n&#45;&gt;u</title>
<path fill="none" stroke="black" d="M195.542,-376.514C205.849,-379.95 219.331,-384.444 231.04,-388.347"/>
<polygon fill="black" stroke="black" points="230.156,-391.741 240.75,-391.583 232.369,-385.1 230.156,-391.741"/>
<text text-anchor="middle" x="218" y="-388.8" font-family="Times,serif" font-size="14.00">1</text>
</g>
<!-- t&#45;&gt;o -->
<g id="edge26" class="edge"><title>t&#45;&gt;o</title>
<path fill="none" stroke="black" d="M1068.88,-530.691C1082.12,-550.39 1105.78,-585.572 1121.43,-608.851"/>
<polygon fill="black" stroke="black" points="1118.72,-611.082 1127.2,-617.428 1124.53,-607.176 1118.72,-611.082"/>
<text text-anchor="middle" x="1098" y="-580.8" font-family="Times,serif" font-size="14.00">1</text>
</g>
<!-- t&#45;&gt;e -->
<g id="edge25" class="edge"><title>t&#45;&gt;e</title>
<path fill="none" stroke="black" d="M1042.81,-526.08C1027.73,-535.785 1002.82,-549 979,-549 577,-549 577,-549 577,-549 524.015,-549 506.892,-473.268 501.458,-430.891"/>
<polygon fill="black" stroke="black" points="504.929,-430.439 500.313,-420.902 497.974,-431.236 504.929,-430.439"/>
<text text-anchor="middle" x="778" y="-552.8" font-family="Times,serif" font-size="14.00">1</text>
</g>
<!-- e&#45;&gt;i -->
<g id="edge17" class="edge"><title>e&#45;&gt;i</title>
<path fill="none" stroke="black" d="M495.574,-420.959C491.945,-453.378 479.302,-521.249 436,-553 406.444,-574.671 392.485,-569.524 356,-573 304.608,-577.897 289.333,-582.21 240,-567 190.025,-551.592 143.169,-510.388 118.062,-485.316"/>
<polygon fill="black" stroke="black" points="120.488,-482.792 110.989,-478.1 115.489,-487.691 120.488,-482.792"/>
<text text-anchor="middle" x="298" y="-580.8" font-family="Times,serif" font-size="14.00">1</text>
</g>
<!-- e&#45;&gt;a -->
<g id="edge20" class="edge"><title>e&#45;&gt;a</title>
<path fill="none" stroke="black" d="M516.087,-405.458C521.784,-406.273 528.165,-407.181 534,-408 628.032,-421.196 739.699,-436.467 790.032,-443.329"/>
<polygon fill="black" stroke="black" points="789.709,-446.817 800.09,-444.699 790.654,-439.881 789.709,-446.817"/>
<text text-anchor="middle" x="658" y="-431.8" font-family="Times,serif" font-size="14.00">1</text>
</g>
<!-- d -->
<g id="node15" class="node"><title>d</title>
<ellipse fill="none" stroke="black" cx="578" cy="-249" rx="18" ry="18"/>
<text text-anchor="middle" x="578" y="-245.3" font-family="Times,serif" font-size="14.00">d</text>
</g>
<!-- e&#45;&gt;d -->
<g id="edge18" class="edge"><title>e&#45;&gt;d</title>
<path fill="none" stroke="black" d="M500.553,-384.908C503.481,-359.638 511.685,-313.256 534,-281 538.914,-273.897 545.917,-267.739 552.848,-262.773"/>
<polygon fill="black" stroke="black" points="554.988,-265.555 561.426,-257.14 551.146,-259.703 554.988,-265.555"/>
<text text-anchor="middle" x="538" y="-284.8" font-family="Times,serif" font-size="14.00">3</text>
</g>
<!-- e&#45;&gt;r -->
<g id="edge19" class="edge"><title>e&#45;&gt;r</title>
<path fill="none" stroke="black" d="M516.116,-400.267C557.027,-393.735 660.739,-377.176 710.098,-369.295"/>
<polygon fill="black" stroke="black" points="710.716,-372.741 720.039,-367.708 709.612,-365.829 710.716,-372.741"/>
<text text-anchor="middle" x="618" y="-388.8" font-family="Times,serif" font-size="14.00">1</text>
</g>
<!-- w&#45;&gt;e -->
<g id="edge39" class="edge"><title>w&#45;&gt;e</title>
<path fill="none" stroke="black" d="M435.162,-425.991C445.62,-422.103 459.462,-416.957 471.397,-412.519"/>
<polygon fill="black" stroke="black" points="472.706,-415.767 480.859,-409.001 470.266,-409.205 472.706,-415.767"/>
<text text-anchor="middle" x="458" y="-422.8" font-family="Times,serif" font-size="14.00">1</text>
</g>
<!-- w&#45;&gt;h -->
<g id="edge38" class="edge"><title>w&#45;&gt;h</title>
<path fill="none" stroke="black" d="M433.123,-442.005C464.559,-463.263 543.35,-511 617,-511 617,-511 617,-511 899,-511 925.343,-511 947.654,-488.913 961.579,-470.689"/>
<polygon fill="black" stroke="black" points="964.713,-472.326 967.722,-462.167 959.035,-468.233 964.713,-472.326"/>
<text text-anchor="middle" x="698" y="-514.8" font-family="Times,serif" font-size="14.00">1</text>
</g>
<!-- d&#45;&gt;  -->
<g id="edge33" class="edge"><title>d&#45;&gt; </title>
<path fill="none" stroke="black" d="M560.21,-246.229C523.751,-241.077 435.665,-233.385 374,-267 365.193,-271.801 357.874,-279.853 352.245,-287.83"/>
<polygon fill="black" stroke="black" points="349.266,-285.992 346.81,-296.298 355.157,-289.773 349.266,-285.992"/>
<text text-anchor="middle" x="458" y="-247.8" font-family="Times,serif" font-size="14.00">2</text>
</g>
<!-- d&#45;&gt;g -->
<g id="edge32" class="edge"><title>d&#45;&gt;g</title>
<path fill="none" stroke="black" d="M596.311,-249C606.106,-249 618.578,-249 629.665,-249"/>
<polygon fill="black" stroke="black" points="629.738,-252.5 639.738,-249 629.738,-245.5 629.738,-252.5"/>
<text text-anchor="middle" x="618" y="-252.8" font-family="Times,serif" font-size="14.00">1</text>
</g>
<!-- r&#45;&gt;  -->
<g id="edge45" class="edge"><title>r&#45;&gt; </title>
<path fill="none" stroke="black" d="M720.066,-362.086C674.343,-354.278 544.519,-332.494 436,-318 412.065,-314.803 406.111,-313.335 382,-312 376.955,-311.721 371.571,-311.589 366.381,-311.546"/>
<polygon fill="black" stroke="black" points="366.163,-308.047 356.17,-311.566 366.176,-315.047 366.163,-308.047"/>
<text text-anchor="middle" x="538" y="-337.8" font-family="Times,serif" font-size="14.00">1</text>
</g>
<!-- r&#45;&gt;a -->
<g id="edge44" class="edge"><title>r&#45;&gt;a</title>
<path fill="none" stroke="black" d="M752.852,-375.305C761.633,-382.141 772.992,-391.562 782,-401 788.673,-407.991 795.279,-416.233 800.924,-423.795"/>
<polygon fill="black" stroke="black" points="798.349,-426.206 807.055,-432.244 804.014,-422.094 798.349,-426.206"/>
<text text-anchor="middle" x="778" y="-404.8" font-family="Times,serif" font-size="14.00">2</text>
</g>
<!-- u&#45;&gt;m -->
<g id="edge27" class="edge"><title>u&#45;&gt;m</title>
<path fill="none" stroke="black" d="M275.925,-394.179C285.772,-392.538 298.418,-390.43 309.646,-388.559"/>
<polygon fill="black" stroke="black" points="310.55,-391.957 319.839,-386.86 309.399,-385.052 310.55,-391.957"/>
<text text-anchor="middle" x="298" y="-394.8" font-family="Times,serif" font-size="14.00">1</text>
</g>
<!-- h&#45;&gt;i -->
<g id="edge31" class="edge"><title>h&#45;&gt;i</title>
<path fill="none" stroke="black" d="M973.276,-464.698C962.208,-512.231 924.605,-642.555 836,-694 719.562,-761.605 367.495,-628.28 240,-585 202.905,-572.408 191.305,-571.55 160,-548 145.9,-537.393 144.662,-532.058 134,-518 126.931,-508.679 119.71,-497.981 113.677,-488.648"/>
<polygon fill="black" stroke="black" points="116.625,-486.762 108.3,-480.208 110.721,-490.523 116.625,-486.762"/>
<text text-anchor="middle" x="538" y="-683.8" font-family="Times,serif" font-size="14.00">1</text>
</g>
<!-- h&#45;&gt;  -->
<g id="edge30" class="edge"><title>h&#45;&gt; </title>
<path fill="none" stroke="black" d="M976.047,-428.922C972.225,-365.653 955.386,-158 899,-158 537,-158 537,-158 537,-158 454.03,-158 425.278,-183.773 374,-249 364.908,-260.565 356.786,-274.795 350.659,-286.803"/>
<polygon fill="black" stroke="black" points="347.475,-285.347 346.193,-295.864 353.754,-288.441 347.475,-285.347"/>
<text text-anchor="middle" x="658" y="-161.8" font-family="Times,serif" font-size="14.00">4</text>
</g>
<!-- h&#45;&gt;t -->
<g id="edge29" class="edge"><title>h&#45;&gt;t</title>
<path fill="none" stroke="black" d="M992.232,-458.705C1004.29,-469.376 1022.31,-485.313 1036.28,-497.672"/>
<polygon fill="black" stroke="black" points="1034.15,-500.464 1043.96,-504.468 1038.79,-495.221 1034.15,-500.464"/>
<text text-anchor="middle" x="1018" y="-487.8" font-family="Times,serif" font-size="14.00">1</text>
</g>
</g>
</svg>
