<?xml version="1.0" encoding="UTF-8" standalone="no"?>
<!DOCTYPE svg PUBLIC "-//W3C//DTD SVG 1.1//EN"
 "http://www.w3.org/Graphics/SVG/1.1/DTD/svg11.dtd">
<!-- Generated by graphviz version 2.36.0 (20140111.2315)
 -->
<!-- Title: finite_state_machine Pages: 1 -->
<svg width="1004pt" height="833pt"
 viewBox="0.00 0.00 1004.00 833.40" xmlns="http://www.w3.org/2000/svg" xmlns:xlink="http://www.w3.org/1999/xlink">
<g id="graph0" class="graph" transform="scale(1 1) rotate(0) translate(4 829.405)">
<title>finite_state_machine</title>
<polygon fill="white" stroke="none" points="-4,4 -4,-829.405 1000,-829.405 1000,4 -4,4"/>
<!-- w -->
<g id="node1" class="node"><title>w</title>
<ellipse fill="none" stroke="black" cx="18" cy="-533.405" rx="18" ry="18"/>
<text text-anchor="middle" x="18" y="-529.705" font-family="Times,serif" font-size="14.00">w</text>
</g>
<!-- e -->
<g id="node2" class="node"><title>e</title>
<ellipse fill="none" stroke="black" cx="98" cy="-533.405" rx="18" ry="18"/>
<text text-anchor="middle" x="98" y="-529.705" font-family="Times,serif" font-size="14.00">e</text>
</g>
<!-- w&#45;&gt;e -->
<g id="edge1" class="edge"><title>w&#45;&gt;e</title>
<path fill="none" stroke="black" d="M36.3107,-533.405C46.1062,-533.405 58.5782,-533.405 69.665,-533.405"/>
<polygon fill="black" stroke="black" points="69.7377,-536.905 79.7377,-533.405 69.7376,-529.905 69.7377,-536.905"/>
<text text-anchor="middle" x="58" y="-537.205" font-family="Times,serif" font-size="14.00">1</text>
</g>
<!-- h -->
<g id="node3" class="node"><title>h</title>
<ellipse fill="none" stroke="black" cx="578" cy="-252.405" rx="18" ry="18"/>
<text text-anchor="middle" x="578" y="-248.705" font-family="Times,serif" font-size="14.00">h</text>
</g>
<!-- w&#45;&gt;h -->
<g id="edge2" class="edge"><title>w&#45;&gt;h</title>
<path fill="none" stroke="black" d="M20.1648,-515.407C25.8401,-431.34 52.1572,-81.4046 97,-81.4046 97,-81.4046 97,-81.4046 499,-81.4046 510.331,-81.4046 510.279,-90.624 516,-100.405 546.587,-152.692 531.887,-175.747 560,-229.405 560.156,-229.701 560.315,-229.999 560.477,-230.296"/>
<polygon fill="black" stroke="black" points="557.531,-232.185 565.849,-238.747 563.438,-228.43 557.531,-232.185"/>
<text text-anchor="middle" x="298" y="-85.2046" font-family="Times,serif" font-size="14.00">1</text>
</g>
<!-- i -->
<g id="node4" class="node"><title>i</title>
<ellipse fill="none" stroke="black" cx="178" cy="-244.405" rx="18" ry="18"/>
<text text-anchor="middle" x="178" y="-240.705" font-family="Times,serif" font-size="14.00">i</text>
</g>
<!-- e&#45;&gt;i -->
<g id="edge40" class="edge"><title>e&#45;&gt;i</title>
<path fill="none" stroke="black" d="M102.86,-515.668C108.973,-487.954 121.477,-432.751 134,-386.405 144.951,-345.876 159.387,-299.396 168.432,-270.97"/>
<polygon fill="black" stroke="black" points="171.793,-271.949 171.504,-261.358 165.126,-269.818 171.793,-271.949"/>
<text text-anchor="middle" x="138" y="-390.205" font-family="Times,serif" font-size="14.00">1</text>
</g>
<!-- r -->
<g id="node9" class="node"><title>r</title>
<ellipse fill="none" stroke="black" cx="338" cy="-504.405" rx="18" ry="18"/>
<text text-anchor="middle" x="338" y="-500.705" font-family="Times,serif" font-size="14.00">r</text>
</g>
<!-- e&#45;&gt;r -->
<g id="edge42" class="edge"><title>e&#45;&gt;r</title>
<path fill="none" stroke="black" d="M115.792,-529.235C142.079,-522.925 194.64,-511.181 240,-506.405 263.462,-503.934 290.287,-503.568 309.772,-503.744"/>
<polygon fill="black" stroke="black" points="309.725,-507.243 319.774,-503.887 309.825,-500.244 309.725,-507.243"/>
<text text-anchor="middle" x="218" y="-513.205" font-family="Times,serif" font-size="14.00">1</text>
</g>
<!-- a -->
<g id="node10" class="node"><title>a</title>
<ellipse fill="none" stroke="black" cx="418" cy="-382.405" rx="18" ry="18"/>
<text text-anchor="middle" x="418" y="-378.705" font-family="Times,serif" font-size="14.00">a</text>
</g>
<!-- e&#45;&gt;a -->
<g id="edge43" class="edge"><title>e&#45;&gt;a</title>
<path fill="none" stroke="black" d="M114.77,-525.916C166.279,-501.457 329.852,-423.786 392.376,-394.097"/>
<polygon fill="black" stroke="black" points="393.978,-397.211 401.51,-389.76 390.975,-390.888 393.978,-397.211"/>
<text text-anchor="middle" x="258" y="-469.205" font-family="Times,serif" font-size="14.00">1</text>
</g>
<!-- d -->
<g id="node15" class="node"><title>d</title>
<ellipse fill="none" stroke="black" cx="178" cy="-584.405" rx="18" ry="18"/>
<text text-anchor="middle" x="178" y="-580.705" font-family="Times,serif" font-size="14.00">d</text>
</g>
<!-- e&#45;&gt;d -->
<g id="edge41" class="edge"><title>e&#45;&gt;d</title>
<path fill="none" stroke="black" d="M113.671,-542.997C125.002,-550.406 140.894,-560.796 153.923,-569.316"/>
<polygon fill="black" stroke="black" points="152.109,-572.312 162.395,-574.855 155.94,-566.453 152.109,-572.312"/>
<text text-anchor="middle" x="138" y="-564.205" font-family="Times,serif" font-size="14.00">3</text>
</g>
<!-- h&#45;&gt;i -->
<g id="edge33" class="edge"><title>h&#45;&gt;i</title>
<path fill="none" stroke="black" d="M562.054,-243.671C550.057,-237.192 532.543,-228.902 516,-225.405 500.346,-222.095 495.992,-224.9 480,-225.405 378.861,-228.593 258.89,-237.795 206.156,-242.115"/>
<polygon fill="black" stroke="black" points="205.632,-238.646 195.954,-242.958 206.209,-245.622 205.632,-238.646"/>
<text text-anchor="middle" x="378" y="-233.205" font-family="Times,serif" font-size="14.00">1</text>
</g>
<!--   -->
<g id="node11" class="node"><title> </title>
<ellipse fill="none" stroke="black" cx="658" cy="-489.405" rx="18" ry="18"/>
<text text-anchor="middle" x="658" y="-485.705" font-family="Times,serif" font-size="14.00"> </text>
</g>
<!-- h&#45;&gt;  -->
<g id="edge32" class="edge"><title>h&#45;&gt; </title>
<path fill="none" stroke="black" d="M586.124,-268.818C595.155,-289.974 610.885,-328.013 622,-361.405 633.383,-395.602 643.925,-435.805 650.402,-461.902"/>
<polygon fill="black" stroke="black" points="647.057,-462.956 652.839,-471.833 653.855,-461.287 647.057,-462.956"/>
<text text-anchor="middle" x="618" y="-365.205" font-family="Times,serif" font-size="14.00">4</text>
</g>
<!-- t -->
<g id="node16" class="node"><title>t</title>
<ellipse fill="none" stroke="black" cx="738" cy="-244.405" rx="18" ry="18"/>
<text text-anchor="middle" x="738" y="-240.705" font-family="Times,serif" font-size="14.00">t</text>
</g>
<!-- h&#45;&gt;t -->
<g id="edge31" class="edge"><title>h&#45;&gt;t</title>
<path fill="none" stroke="black" d="M596.21,-251.533C623.515,-250.151 677.006,-247.442 709.62,-245.791"/>
<polygon fill="black" stroke="black" points="710.001,-249.276 719.812,-245.275 709.647,-242.285 710.001,-249.276"/>
<text text-anchor="middle" x="658" y="-252.205" font-family="Times,serif" font-size="14.00">1</text>
</g>
<!-- g -->
<g id="node5" class="node"><title>g</title>
<ellipse fill="none" stroke="black" cx="258" cy="-533.405" rx="18" ry="18"/>
<text text-anchor="middle" x="258" y="-529.705" font-family="Times,serif" font-size="14.00">g</text>
</g>
<!-- i&#45;&gt;g -->
<g id="edge3" class="edge"><title>i&#45;&gt;g</title>
<path fill="none" stroke="black" d="M183.646,-261.617C196.706,-310.007 233.824,-447.534 249.677,-506.271"/>
<polygon fill="black" stroke="black" points="246.394,-507.539 252.379,-516.282 253.152,-505.715 246.394,-507.539"/>
<text text-anchor="middle" x="218" y="-401.205" font-family="Times,serif" font-size="14.00">2</text>
</g>
<!-- s -->
<g id="node6" class="node"><title>s</title>
<ellipse fill="none" stroke="black" cx="498" cy="-127.405" rx="18" ry="18"/>
<text text-anchor="middle" x="498" y="-123.705" font-family="Times,serif" font-size="14.00">s</text>
</g>
<!-- i&#45;&gt;s -->
<g id="edge4" class="edge"><title>i&#45;&gt;s</title>
<path fill="none" stroke="black" d="M187.944,-229.097C200.62,-209.6 225.779,-178.405 257,-178.405 257,-178.405 257,-178.405 419,-178.405 442.207,-178.405 463.896,-162.394 478.481,-148.314"/>
<polygon fill="black" stroke="black" points="481.334,-150.403 485.819,-140.804 476.327,-145.511 481.334,-150.403"/>
<text text-anchor="middle" x="338" y="-182.205" font-family="Times,serif" font-size="14.00">2</text>
</g>
<!-- n -->
<g id="node7" class="node"><title>n</title>
<ellipse fill="none" stroke="black" cx="738" cy="-615.405" rx="18" ry="18"/>
<text text-anchor="middle" x="738" y="-611.705" font-family="Times,serif" font-size="14.00">n</text>
</g>
<!-- i&#45;&gt;n -->
<g id="edge5" class="edge"><title>i&#45;&gt;n</title>
<path fill="none" stroke="black" d="M181.967,-226.567C190.649,-177.375 217.884,-43.4046 257,-43.4046 257,-43.4046 257,-43.4046 579,-43.4046 653.527,-43.4046 683.439,-283.226 702,-355.405 717.624,-416.162 711.6,-433.235 720,-495.405 724.27,-527.01 729.443,-563.256 732.953,-587.568"/>
<polygon fill="black" stroke="black" points="729.498,-588.128 734.394,-597.524 736.425,-587.125 729.498,-588.128"/>
<text text-anchor="middle" x="458" y="-47.2046" font-family="Times,serif" font-size="14.00">1</text>
</g>
<!-- c -->
<g id="node8" class="node"><title>c</title>
<ellipse fill="none" stroke="black" cx="498" cy="-252.405" rx="18" ry="18"/>
<text text-anchor="middle" x="498" y="-248.705" font-family="Times,serif" font-size="14.00">c</text>
</g>
<!-- i&#45;&gt;c -->
<g id="edge6" class="edge"><title>i&#45;&gt;c</title>
<path fill="none" stroke="black" d="M194.406,-252.13C209.839,-259.146 234.473,-268.405 257,-268.405 257,-268.405 257,-268.405 419,-268.405 436.634,-268.405 456.061,-264.432 471.116,-260.446"/>
<polygon fill="black" stroke="black" points="472.085,-263.809 480.764,-257.732 470.19,-257.07 472.085,-263.809"/>
<text text-anchor="middle" x="338" y="-272.205" font-family="Times,serif" font-size="14.00">1</text>
</g>
<!-- g&#45;&gt;e -->
<g id="edge9" class="edge"><title>g&#45;&gt;e</title>
<path fill="none" stroke="black" d="M239.812,-533.405C212.519,-533.405 159.03,-533.405 126.406,-533.405"/>
<polygon fill="black" stroke="black" points="126.21,-529.905 116.21,-533.405 126.21,-536.905 126.21,-529.905"/>
<text text-anchor="middle" x="178" y="-537.205" font-family="Times,serif" font-size="14.00">1</text>
</g>
<!-- g&#45;&gt;h -->
<g id="edge10" class="edge"><title>g&#45;&gt;h</title>
<path fill="none" stroke="black" d="M266.517,-517.474C284.493,-481.002 333.477,-390.718 400,-340.405 423.441,-322.675 435.345,-329.786 462,-317.405 494.905,-302.12 531.06,-280.903 553.881,-266.923"/>
<polygon fill="black" stroke="black" points="555.843,-269.825 562.511,-261.591 552.164,-263.87 555.843,-269.825"/>
<text text-anchor="middle" x="418" y="-344.205" font-family="Times,serif" font-size="14.00">1</text>
</g>
<!-- g&#45;&gt;n -->
<g id="edge8" class="edge"><title>g&#45;&gt;n</title>
<path fill="none" stroke="black" d="M263.224,-550.908C271.65,-581.015 293.588,-639.405 337,-639.405 337,-639.405 337,-639.405 659,-639.405 677.304,-639.405 696.997,-633.293 712.017,-627.238"/>
<polygon fill="black" stroke="black" points="713.783,-630.289 721.594,-623.13 711.024,-623.855 713.783,-630.289"/>
<text text-anchor="middle" x="498" y="-643.205" font-family="Times,serif" font-size="14.00">1</text>
</g>
<!-- g&#45;&gt;r -->
<g id="edge7" class="edge"><title>g&#45;&gt;r</title>
<path fill="none" stroke="black" d="M275.162,-527.396C285.62,-523.507 299.462,-518.361 311.397,-513.923"/>
<polygon fill="black" stroke="black" points="312.706,-517.171 320.859,-510.406 310.266,-510.61 312.706,-517.171"/>
<text text-anchor="middle" x="298" y="-523.205" font-family="Times,serif" font-size="14.00">2</text>
</g>
<!-- s&#45;&gt;i -->
<g id="edge15" class="edge"><title>s&#45;&gt;i</title>
<path fill="none" stroke="black" d="M479.958,-127.405C464.156,-127.405 439.99,-127.405 419,-127.405 257,-127.405 257,-127.405 257,-127.405 214.19,-127.405 193.43,-182.303 184.599,-216.89"/>
<polygon fill="black" stroke="black" points="181.13,-216.351 182.231,-226.888 187.942,-217.965 181.13,-216.351"/>
<text text-anchor="middle" x="338" y="-131.205" font-family="Times,serif" font-size="14.00">1</text>
</g>
<!-- s&#45;&gt;s -->
<g id="edge14" class="edge"><title>s&#45;&gt;s</title>
<path fill="none" stroke="black" d="M490.969,-144.069C489.406,-154.03 491.75,-163.405 498,-163.405 502.004,-163.405 504.405,-159.557 505.202,-154.173"/>
<polygon fill="black" stroke="black" points="508.7,-154.008 505.031,-144.069 501.701,-154.126 508.7,-154.008"/>
<text text-anchor="middle" x="498" y="-167.205" font-family="Times,serif" font-size="14.00">1</text>
</g>
<!-- s&#45;&gt;  -->
<g id="edge13" class="edge"><title>s&#45;&gt; </title>
<path fill="none" stroke="black" d="M514.156,-135.955C535.884,-149.043 575.518,-176.169 596,-210.405 644.836,-292.036 654.734,-408.012 656.628,-461.007"/>
<polygon fill="black" stroke="black" points="653.139,-461.428 656.922,-471.325 660.136,-461.229 653.139,-461.428"/>
<text text-anchor="middle" x="578" y="-214.205" font-family="Times,serif" font-size="14.00">2</text>
</g>
<!-- n&#45;&gt;e -->
<g id="edge23" class="edge"><title>n&#45;&gt;e</title>
<path fill="none" stroke="black" d="M733.012,-632.757C724.852,-663.286 703.176,-723.405 659,-723.405 177,-723.405 177,-723.405 177,-723.405 107.946,-723.405 98.7316,-614.676 98.3387,-561.72"/>
<polygon fill="black" stroke="black" points="101.839,-561.632 98.3665,-551.623 94.8389,-561.613 101.839,-561.632"/>
<text text-anchor="middle" x="418" y="-727.205" font-family="Times,serif" font-size="14.00">1</text>
</g>
<!-- n&#45;&gt;  -->
<g id="edge21" class="edge"><title>n&#45;&gt; </title>
<path fill="none" stroke="black" d="M727.758,-600.475C714.395,-578.889 689.543,-538.743 673.661,-513.088"/>
<polygon fill="black" stroke="black" points="676.493,-511.014 668.254,-504.353 670.542,-514.698 676.493,-511.014"/>
<text text-anchor="middle" x="698" y="-559.205" font-family="Times,serif" font-size="14.00">1</text>
</g>
<!-- u -->
<g id="node12" class="node"><title>u</title>
<ellipse fill="none" stroke="black" cx="818" cy="-671.405" rx="18" ry="18"/>
<text text-anchor="middle" x="818" y="-667.705" font-family="Times,serif" font-size="14.00">u</text>
</g>
<!-- n&#45;&gt;u -->
<g id="edge22" class="edge"><title>n&#45;&gt;u</title>
<path fill="none" stroke="black" d="M753.306,-625.676C764.851,-633.964 781.3,-645.774 794.59,-655.316"/>
<polygon fill="black" stroke="black" points="792.62,-658.209 802.784,-661.198 796.702,-652.523 792.62,-658.209"/>
<text text-anchor="middle" x="778" y="-648.205" font-family="Times,serif" font-size="14.00">1</text>
</g>
<!-- c&#45;&gt;h -->
<g id="edge16" class="edge"><title>c&#45;&gt;h</title>
<path fill="none" stroke="black" d="M516.311,-252.405C526.106,-252.405 538.578,-252.405 549.665,-252.405"/>
<polygon fill="black" stroke="black" points="549.738,-255.905 559.738,-252.405 549.738,-248.905 549.738,-255.905"/>
<text text-anchor="middle" x="538" y="-256.205" font-family="Times,serif" font-size="14.00">2</text>
</g>
<!-- r&#45;&gt;a -->
<g id="edge11" class="edge"><title>r&#45;&gt;a</title>
<path fill="none" stroke="black" d="M348.564,-489.445C361.911,-468.57 386.253,-430.495 402.019,-405.836"/>
<polygon fill="black" stroke="black" points="405.163,-407.416 407.601,-397.105 399.266,-403.645 405.163,-407.416"/>
<text text-anchor="middle" x="378" y="-450.205" font-family="Times,serif" font-size="14.00">2</text>
</g>
<!-- r&#45;&gt;  -->
<g id="edge12" class="edge"><title>r&#45;&gt; </title>
<path fill="none" stroke="black" d="M355.99,-507.158C371.757,-509.472 395.9,-512.405 417,-512.405 417,-512.405 417,-512.405 579,-512.405 597.239,-512.405 616.933,-506.547 631.969,-500.745"/>
<polygon fill="black" stroke="black" points="633.637,-503.843 641.559,-496.809 630.979,-497.368 633.637,-503.843"/>
<text text-anchor="middle" x="498" y="-516.205" font-family="Times,serif" font-size="14.00">1</text>
</g>
<!-- a&#45;&gt;s -->
<g id="edge39" class="edge"><title>a&#45;&gt;s</title>
<path fill="none" stroke="black" d="M428.011,-367.108C430.826,-361.922 433.773,-356.018 436,-350.405 450.267,-314.441 477.64,-206.176 490.289,-154.902"/>
<polygon fill="black" stroke="black" points="493.766,-155.418 492.754,-144.872 486.968,-153.747 493.766,-155.418"/>
<text text-anchor="middle" x="458" y="-296.205" font-family="Times,serif" font-size="14.00">1</text>
</g>
<!-- a&#45;&gt;c -->
<g id="edge36" class="edge"><title>a&#45;&gt;c</title>
<path fill="none" stroke="black" d="M428.1,-367.237C441.545,-344.83 466.837,-302.676 482.754,-276.148"/>
<polygon fill="black" stroke="black" points="485.814,-277.851 487.958,-267.475 479.811,-274.249 485.814,-277.851"/>
<text text-anchor="middle" x="458" y="-324.205" font-family="Times,serif" font-size="14.00">1</text>
</g>
<!-- a&#45;&gt;  -->
<g id="edge37" class="edge"><title>a&#45;&gt; </title>
<path fill="none" stroke="black" d="M436.177,-384.088C468.795,-387.812 541.326,-398.638 596,-425.405 608.623,-431.584 611.841,-433.692 622,-443.405 628.986,-450.084 635.669,-458.248 641.289,-465.835"/>
<polygon fill="black" stroke="black" points="638.701,-468.235 647.352,-474.352 644.404,-464.175 638.701,-468.235"/>
<text text-anchor="middle" x="538" y="-408.205" font-family="Times,serif" font-size="14.00">3</text>
</g>
<!-- p -->
<g id="node17" class="node"><title>p</title>
<ellipse fill="none" stroke="black" cx="498" cy="-344.405" rx="18" ry="18"/>
<text text-anchor="middle" x="498" y="-340.705" font-family="Times,serif" font-size="14.00">p</text>
</g>
<!-- a&#45;&gt;p -->
<g id="edge38" class="edge"><title>a&#45;&gt;p</title>
<path fill="none" stroke="black" d="M434.41,-374.897C445.307,-369.588 460.14,-362.362 472.63,-356.277"/>
<polygon fill="black" stroke="black" points="474.165,-359.423 481.622,-351.897 471.099,-353.13 474.165,-359.423"/>
<text text-anchor="middle" x="458" y="-368.205" font-family="Times,serif" font-size="14.00">2</text>
</g>
<!--  &#45;&gt;w -->
<g id="edge28" class="edge"><title> &#45;&gt;w</title>
<path fill="none" stroke="black" d="M656.241,-507.629C652.94,-560.89 635.36,-716.9 542,-786.405 455.048,-851.138 407.403,-807.405 299,-807.405 97,-807.405 97,-807.405 97,-807.405 46.2964,-807.405 26.7774,-631.648 21.0149,-561.663"/>
<polygon fill="black" stroke="black" points="24.4796,-561.077 20.2055,-551.382 17.5012,-561.626 24.4796,-561.077"/>
<text text-anchor="middle" x="338" y="-814.205" font-family="Times,serif" font-size="14.00">2</text>
</g>
<!--  &#45;&gt;e -->
<g id="edge27" class="edge"><title> &#45;&gt;e</title>
<path fill="none" stroke="black" d="M650.69,-506.074C636.831,-540.172 600.248,-617.676 542,-653.405 479.581,-691.692 452.226,-677.405 379,-677.405 177,-677.405 177,-677.405 177,-677.405 124.82,-677.405 107.368,-603.398 101.669,-561.494"/>
<polygon fill="black" stroke="black" points="105.117,-560.854 100.432,-551.351 98.1681,-561.701 105.117,-560.854"/>
<text text-anchor="middle" x="378" y="-681.205" font-family="Times,serif" font-size="14.00">2</text>
</g>
<!--  &#45;&gt;i -->
<g id="edge30" class="edge"><title> &#45;&gt;i</title>
<path fill="none" stroke="black" d="M639.589,-488.548C568.348,-484.695 299.989,-466.675 240,-411.405 229.312,-401.557 201.336,-315.818 187.293,-271.178"/>
<polygon fill="black" stroke="black" points="190.607,-270.048 184.28,-261.55 183.926,-272.139 190.607,-270.048"/>
<text text-anchor="middle" x="418" y="-472.205" font-family="Times,serif" font-size="14.00">3</text>
</g>
<!--  &#45;&gt;g -->
<g id="edge29" class="edge"><title> &#45;&gt;g</title>
<path fill="none" stroke="black" d="M645.052,-502.012C638.714,-508.048 630.493,-514.92 622,-519.405 611.418,-524.992 607.809,-524.466 596,-526.405 466.985,-547.583 432.733,-534.878 302,-536.405 298.445,-536.446 297.552,-536.557 294,-536.405 291.441,-536.295 288.779,-536.141 286.118,-535.959"/>
<polygon fill="black" stroke="black" points="286.317,-532.464 276.071,-535.162 285.763,-539.442 286.317,-532.464"/>
<text text-anchor="middle" x="458" y="-542.205" font-family="Times,serif" font-size="14.00">2</text>
</g>
<!--  &#45;&gt;n -->
<g id="edge25" class="edge"><title> &#45;&gt;n</title>
<path fill="none" stroke="black" d="M672.892,-499.684C682.138,-507.105 694.009,-517.824 702,-529.405 714.475,-547.483 723.585,-570.68 729.379,-588.425"/>
<polygon fill="black" stroke="black" points="726.096,-589.654 732.407,-598.164 732.78,-587.576 726.096,-589.654"/>
<text text-anchor="middle" x="698" y="-533.205" font-family="Times,serif" font-size="14.00">1</text>
</g>
<!--  &#45;&gt;a -->
<g id="edge24" class="edge"><title> &#45;&gt;a</title>
<path fill="none" stroke="black" d="M646.804,-475.23C640.489,-467.422 631.739,-458.172 622,-452.405 555.587,-413.075 523.584,-441.806 454,-408.405 449.381,-406.187 444.758,-403.325 440.455,-400.314"/>
<polygon fill="black" stroke="black" points="442.273,-397.301 432.179,-394.082 438.062,-402.893 442.273,-397.301"/>
<text text-anchor="middle" x="538" y="-431.205" font-family="Times,serif" font-size="14.00">3</text>
</g>
<!--  &#45;&gt;t -->
<g id="edge26" class="edge"><title> &#45;&gt;t</title>
<path fill="none" stroke="black" d="M664.361,-472.565C677.692,-430.692 712.422,-321.604 728.547,-270.957"/>
<polygon fill="black" stroke="black" points="731.903,-271.953 731.601,-261.362 725.232,-269.829 731.903,-271.953"/>
<text text-anchor="middle" x="698" y="-377.205" font-family="Times,serif" font-size="14.00">1</text>
</g>
<!-- m -->
<g id="node13" class="node"><title>m</title>
<ellipse fill="none" stroke="black" cx="898" cy="-713.405" rx="18.399" ry="18.399"/>
<text text-anchor="middle" x="898" y="-709.705" font-family="Times,serif" font-size="14.00">m</text>
</g>
<!-- u&#45;&gt;m -->
<g id="edge17" class="edge"><title>u&#45;&gt;m</title>
<path fill="none" stroke="black" d="M834.41,-679.702C845.307,-685.57 860.14,-693.557 872.63,-700.282"/>
<polygon fill="black" stroke="black" points="871.158,-703.465 881.622,-705.124 874.476,-697.301 871.158,-703.465"/>
<text text-anchor="middle" x="858" y="-697.205" font-family="Times,serif" font-size="14.00">1</text>
</g>
<!-- b -->
<g id="node18" class="node"><title>b</title>
<ellipse fill="none" stroke="black" cx="978" cy="-750.405" rx="18" ry="18"/>
<text text-anchor="middle" x="978" y="-746.705" font-family="Times,serif" font-size="14.00">b</text>
</g>
<!-- m&#45;&gt;b -->
<g id="edge46" class="edge"><title>m&#45;&gt;b</title>
<path fill="none" stroke="black" d="M914.784,-720.892C925.533,-725.991 939.98,-732.844 952.247,-738.663"/>
<polygon fill="black" stroke="black" points="950.97,-741.931 961.505,-743.054 953.97,-735.606 950.97,-741.931"/>
<text text-anchor="middle" x="938" y="-736.205" font-family="Times,serif" font-size="14.00">1</text>
</g>
<!-- o -->
<g id="node14" class="node"><title>o</title>
<ellipse fill="none" stroke="black" cx="818" cy="-458.405" rx="18" ry="18"/>
<text text-anchor="middle" x="818" y="-454.705" font-family="Times,serif" font-size="14.00">o</text>
</g>
<!-- o&#45;&gt;  -->
<g id="edge18" class="edge"><title>o&#45;&gt; </title>
<path fill="none" stroke="black" d="M800.213,-461.698C772.97,-467.043 718.889,-477.654 686.131,-484.081"/>
<polygon fill="black" stroke="black" points="685.048,-480.727 675.909,-486.087 686.396,-487.596 685.048,-480.727"/>
<text text-anchor="middle" x="738" y="-480.205" font-family="Times,serif" font-size="14.00">1</text>
</g>
<!-- d&#45;&gt;g -->
<g id="edge20" class="edge"><title>d&#45;&gt;g</title>
<path fill="none" stroke="black" d="M193.671,-574.812C205.002,-567.403 220.894,-557.013 233.923,-548.493"/>
<polygon fill="black" stroke="black" points="235.94,-551.356 242.395,-542.954 232.109,-545.497 235.94,-551.356"/>
<text text-anchor="middle" x="218" y="-564.205" font-family="Times,serif" font-size="14.00">1</text>
</g>
<!-- d&#45;&gt;  -->
<g id="edge19" class="edge"><title>d&#45;&gt; </title>
<path fill="none" stroke="black" d="M195.623,-588.467C211.338,-591.949 235.626,-596.405 257,-596.405 257,-596.405 257,-596.405 379,-596.405 490.46,-596.405 530.269,-597.719 622,-534.405 629.962,-528.909 636.947,-521.049 642.54,-513.432"/>
<polygon fill="black" stroke="black" points="645.71,-514.995 648.441,-504.758 639.922,-511.057 645.71,-514.995"/>
<text text-anchor="middle" x="418" y="-599.205" font-family="Times,serif" font-size="14.00">2</text>
</g>
<!-- t&#45;&gt;e -->
<g id="edge44" class="edge"><title>t&#45;&gt;e</title>
<path fill="none" stroke="black" d="M735.19,-226.463C729.014,-170.114 706.475,-0.404559 659,-0.404559 417,-0.404559 417,-0.404559 417,-0.404559 336.446,-0.404559 306.491,6.06839 240,-39.4046 222.805,-51.1644 223.606,-59.9196 214,-78.4046 136.629,-227.285 109.32,-431.063 101.598,-505.081"/>
<polygon fill="black" stroke="black" points="98.0752,-505.13 100.559,-515.429 105.04,-505.829 98.0752,-505.13"/>
<text text-anchor="middle" x="418" y="-4.20456" font-family="Times,serif" font-size="14.00">1</text>
</g>
<!-- t&#45;&gt;o -->
<g id="edge45" class="edge"><title>t&#45;&gt;o</title>
<path fill="none" stroke="black" d="M745.121,-261.197C758.648,-298.31 791.173,-387.547 807.423,-432.13"/>
<polygon fill="black" stroke="black" points="804.195,-433.494 810.908,-441.69 810.772,-431.096 804.195,-433.494"/>
<text text-anchor="middle" x="778" y="-361.205" font-family="Times,serif" font-size="14.00">1</text>
</g>
<!-- p&#45;&gt;h -->
<g id="edge34" class="edge"><title>p&#45;&gt;h</title>
<path fill="none" stroke="black" d="M513.73,-335.6C522.636,-329.783 533.813,-321.562 542,-312.405 551.231,-302.08 559.224,-288.944 565.231,-277.597"/>
<polygon fill="black" stroke="black" points="568.399,-279.089 569.794,-268.587 562.154,-275.926 568.399,-279.089"/>
<text text-anchor="middle" x="538" y="-323.205" font-family="Times,serif" font-size="14.00">2</text>
</g>
<!-- b&#45;&gt;e -->
<g id="edge35" class="edge"><title>b&#45;&gt;e</title>
<path fill="none" stroke="black" d="M961.559,-757.809C946.1,-764.532 921.448,-773.405 899,-773.405 657,-773.405 657,-773.405 657,-773.405 497.8,-773.405 458.2,-761.405 299,-761.405 177,-761.405 177,-761.405 177,-761.405 151.199,-761.405 146.564,-744.939 134,-722.405 105.257,-670.853 99.5243,-600.317 98.7263,-561.638"/>
<polygon fill="black" stroke="black" points="102.226,-561.576 98.6171,-551.615 95.2264,-561.653 102.226,-561.576"/>
<text text-anchor="middle" x="538" y="-774.205" font-family="Times,serif" font-size="14.00">1</text>
</g>
</g>
</svg>
